<svg xmlns="http://www.w3.org/2000/svg" viewBox="0 0 800 320" role="img" aria-label="Filmster">
  <defs>
    <linearGradient id="fm-bg" x1="0" y1="0" x2="1" y2="1">
      <stop offset="0%" stop-color="#0c1626"/>
      <stop offset="100%" stop-color="#101a2e"/>
    </linearGradient>
    <linearGradient id="fm-accent" x1="0" y1="0" x2="1" y2="0">
      <stop offset="0%" stop-color="#22d3ee"/>
      <stop offset="100%" stop-color="#3b82f6"/>
    </linearGradient>
    <radialGradient id="fm-glow" cx="50%" cy="40%" r="60%">
      <stop offset="0%" stop-color="#22d3ee" stop-opacity="0.25"/>
      <stop offset="100%" stop-color="#22d3ee" stop-opacity="0"/>
    </radialGradient>
  </defs>
  <rect width="800" height="320" fill="url(#fm-bg)"/>
  <rect width="800" height="320" fill="url(#fm-glow)"/>
  <g opacity="0.18" stroke="#22d3ee" stroke-width="0.5" fill="none">
    <path d="M0 80 H800"/><path d="M0 160 H800"/><path d="M0 240 H800"/>
    <path d="M120 0 V320"/><path d="M280 0 V320"/><path d="M440 0 V320"/><path d="M600 0 V320"/>
  </g>
  <!-- Film strip -->
  <g transform="translate(60,90)">
    <rect width="680" height="140" rx="14" fill="#0a0f1c" stroke="#22324a" stroke-width="1"/>
    <g fill="#22d3ee">
      <rect x="12" y="12" width="14" height="14" rx="3" opacity="0.55"/>
      <rect x="12" y="62" width="14" height="14" rx="3" opacity="0.55"/>
      <rect x="12" y="112" width="14" height="14" rx="3" opacity="0.55"/>
      <rect x="654" y="12" width="14" height="14" rx="3" opacity="0.55"/>
      <rect x="654" y="62" width="14" height="14" rx="3" opacity="0.55"/>
      <rect x="654" y="112" width="14" height="14" rx="3" opacity="0.55"/>
    </g>
    <!-- Posters -->
    <g transform="translate(48,20)">
      <rect width="140" height="100" rx="8" fill="#152033"/>
      <rect x="10" y="10" width="80" height="10" rx="2" fill="#22d3ee" opacity="0.7"/>
      <rect x="10" y="28" width="60" height="6" rx="2" fill="#8b97a7"/>
      <rect x="10" y="42" width="120" height="6" rx="2" fill="#3b82f6" opacity="0.5"/>
      <circle cx="110" cy="78" r="14" fill="none" stroke="#22d3ee" stroke-width="2"/>
      <polygon points="106,72 106,84 118,78" fill="#22d3ee"/>
    </g>
    <g transform="translate(212,20)">
      <rect width="140" height="100" rx="8" fill="#152033"/>
      <rect x="10" y="10" width="100" height="10" rx="2" fill="#7c5cff" opacity="0.7"/>
      <rect x="10" y="28" width="70" height="6" rx="2" fill="#8b97a7"/>
      <rect x="10" y="42" width="120" height="6" rx="2" fill="#3b82f6" opacity="0.5"/>
      <circle cx="110" cy="78" r="14" fill="none" stroke="#7c5cff" stroke-width="2"/>
      <polygon points="106,72 106,84 118,78" fill="#7c5cff"/>
    </g>
    <g transform="translate(376,20)">
      <rect width="140" height="100" rx="8" fill="#152033"/>
      <rect x="10" y="10" width="90" height="10" rx="2" fill="#22d3ee" opacity="0.7"/>
      <rect x="10" y="28" width="50" height="6" rx="2" fill="#8b97a7"/>
      <rect x="10" y="42" width="120" height="6" rx="2" fill="#3b82f6" opacity="0.5"/>
      <circle cx="110" cy="78" r="14" fill="none" stroke="#22d3ee" stroke-width="2"/>
      <polygon points="106,72 106,84 118,78" fill="#22d3ee"/>
    </g>
    <g transform="translate(540,20)">
      <rect width="100" height="100" rx="8" fill="#152033"/>
      <rect x="10" y="10" width="60" height="10" rx="2" fill="#7c5cff" opacity="0.7"/>
      <rect x="10" y="28" width="40" height="6" rx="2" fill="#8b97a7"/>
      <rect x="10" y="42" width="80" height="6" rx="2" fill="#3b82f6" opacity="0.5"/>
    </g>
  </g>
  <text x="60" y="56" font-family="ui-sans-serif, system-ui" font-size="22" font-weight="700" fill="url(#fm-accent)">Filmster</text>
  <text x="60" y="78" font-family="ui-monospace, monospace" font-size="12" fill="#8b97a7">streaming · MERN · TypeScript</text>
</svg>
